<?xml version="1.0"?>
<svg xmlns="http://www.w3.org/2000/svg" xmlns:xlink="http://www.w3.org/1999/xlink" xmlns:svgjs="http://svgjs.com/svgjs" version="1.1" width="512" height="512" x="0" y="0" viewBox="0 0 496 496" style="enable-background:new 0 0 512 512" xml:space="preserve" class=""><g><path d="m208 216c0-48.519531-39.480469-88-88-88s-88 39.480469-88 88 39.480469 88 88 88 88-39.480469 88-88zm-160 0c0-39.703125 32.296875-72 72-72s72 32.296875 72 72-32.296875 72-72 72-72-32.296875-72-72zm0 0" fill="#dddddd" data-original="#000000" class=""/><path d="m448 88v-64c0-13.230469-10.769531-24-24-24h-304c-13.230469 0-24 10.769531-24 24v74.414062c-54.710938 11.152344-96 59.632813-96 117.585938 0 52.128906 33.464844 96.472656 80 113v23h-16v16h16v88c0 22.054688 17.945312 40 40 40s40-17.945312 40-40v-56h264c13.230469 0 24-10.769531 24-24v-64c0-13.230469-10.769531-24-24-24v-32c13.230469 0 24-10.769531 24-24v-64c0-13.230469-10.769531-24-24-24v-32c13.230469 0 24-10.769531 24-24zm-16-64v64c0 4.414062-3.585938 8-8 8h-72v-80h72c4.414062 0 8 3.585938 8 8zm-320 0c0-4.414062 3.585938-8 8-8h216v80h-208v.40625c-2.65625-.175781-5.296875-.40625-8-.40625s-5.34375.230469-8 .40625zm-96 192c0-57.34375 46.65625-104 104-104s104 46.65625 104 104-46.65625 104-104 104-104-46.65625-104-104zm80 117.585938c7.761719 1.574218 15.785156 2.414062 24 2.414062s16.238281-.839844 24-2.414062v18.414062h-48zm24 146.414062c-13.230469 0-24-10.769531-24-24v-88h48v88c0 13.230469-10.769531 24-24 24zm40-112h16v-16h-16v-23c15.480469-5.496094 29.480469-14.0625 41.3125-25h134.6875v80h-176zm272-56v64c0 4.414062-3.585938 8-8 8h-72v-80h72c4.414062 0 8 3.585938 8 8zm-24-24h-192.222656c7.269531-9.648438 13.109375-20.40625 17.222656-32h175zm24-120v64c0 4.414062-3.585938 8-8 8h-186.414062c1.574218-7.761719 2.414062-15.785156 2.414062-24 0-20.222656-5.070312-39.265625-13.945312-56h197.945312c4.414062 0 8 3.585938 8 8zm-24-24h-192.222656c-9.761719-12.953125-22.042969-23.871094-36.160156-32h228.382812zm0 0" fill="#dddddd" data-original="#000000" class=""/><path d="m392 80c13.230469 0 24-10.769531 24-24s-10.769531-24-24-24-24 10.769531-24 24 10.769531 24 24 24zm0-32c4.414062 0 8 3.585938 8 8s-3.585938 8-8 8-8-3.585938-8-8 3.585938-8 8-8zm0 0" fill="#dddddd" data-original="#000000" class=""/><path d="m128 48h192v16h-192zm0 0" fill="#dddddd" data-original="#000000" class=""/><path d="m256 192h160v16h-160zm0 0" fill="#dddddd" data-original="#000000" class=""/><path d="m392 320c-13.230469 0-24 10.769531-24 24s10.769531 24 24 24 24-10.769531 24-24-10.769531-24-24-24zm0 32c-4.414062 0-8-3.585938-8-8s3.585938-8 8-8 8 3.585938 8 8-3.585938 8-8 8zm0 0" fill="#dddddd" data-original="#000000" class=""/><path d="m192 336h128v16h-128zm0 0" fill="#dddddd" data-original="#000000" class=""/></g></svg>
