<?xml version="1.0"?>
<svg xmlns="http://www.w3.org/2000/svg" xmlns:xlink="http://www.w3.org/1999/xlink" xmlns:svgjs="http://svgjs.com/svgjs" version="1.1" width="512" height="512" x="0" y="0" viewBox="0 0 64 64" style="enable-background:new 0 0 512 512" xml:space="preserve" class=""><g><title>18 DMCA Notice</title><g id="_18_DMCA_Notice" data-name="18 DMCA Notice"><path d="M59,25H47V10c0-.021-.011-.039-.012-.06a1,1,0,0,0-.054-.266A.948.948,0,0,0,46.9,9.58a1.013,1.013,0,0,0-.189-.281l-.006-.007-6-6L40.7,3.288a.993.993,0,0,0-.279-.188c-.032-.015-.065-.023-.1-.035a.975.975,0,0,0-.262-.052C40.04,3.011,40.022,3,40,3H5A2,2,0,0,0,3,5V59a2.017,2.017,0,0,0,2,2H45a2.065,2.065,0,0,0,1.438-.6A2.032,2.032,0,0,0,47,59V57H57a2,2,0,0,0,2-2V41a2,2,0,0,0-2-2H47V31H59a2,2,0,0,0,2-2V27A2,2,0,0,0,59,25ZM46,29H40l0-2H51v2Zm7-2h2v2H53ZM43.586,9H41V6.414ZM19,5V16.233l-3.485-2.09a1,1,0,0,0-1.03,0L11,16.233V5ZM57,55H11V41H57ZM45,39H11a2,2,0,0,0-2,2V55a2,2,0,0,0,2,2H45v2H5V5H9V18a1,1,0,0,0,1.515.857L15,16.166l4.485,2.691A1,1,0,0,0,21,18V5H39V9a2,2,0,0,0,2,2h4V25H40a2,2,0,0,0-2,2H34V25h1a1,1,0,0,0,.97-.758l1-4A1,1,0,0,0,36,19H24a1,1,0,0,0-.97,1.242l1,4A1,1,0,0,0,25,25h1v6H25a1,1,0,0,0-.97.758l-1,4A1,1,0,0,0,24,37H36a1,1,0,0,0,.97-1.242l-1-4A1,1,0,0,0,35,31H34V29h4a2,2,0,0,0,2,2h5ZM27,33h7.219l.5,2H25.281l.5-2Zm1-2V25h4v6Zm5-8H25.781l-.5-2h9.438l-.5,2Zm26,6H57V27h2Z" fill="#dddddd" data-original="#000000" class=""/><path d="M18,43H16a1,1,0,0,0-1,1v8a1,1,0,0,0,1,1h2a5,5,0,0,0,0-10Zm0,8H17V45h1a3,3,0,0,1,0,6Z" fill="#dddddd" data-original="#000000" class=""/><path d="M32.472,43.118a1,1,0,0,0-1.027.05L29,44.8l-2.445-1.63A1,1,0,0,0,25,44v8a1,1,0,0,0,2,0V45.868l1.445.964a1,1,0,0,0,1.11,0L31,45.868V52a1,1,0,0,0,2,0V44A1,1,0,0,0,32.472,43.118Z" fill="#dddddd" data-original="#000000" class=""/><path d="M40,45h2a1,1,0,0,0,0-2H40a5,5,0,0,0,0,10h2a1,1,0,0,0,0-2H40a3,3,0,0,1,0-6Z" fill="#dddddd" data-original="#000000" class=""/><path d="M45.648,52.937a1,1,0,0,0,1.289-.585L47.443,51h3.114l.506,1.352A1,1,0,0,0,52,53a1.038,1.038,0,0,0,.352-.063,1,1,0,0,0,.585-1.289l-3-8a1,1,0,0,0-1.874,0l-3,8A1,1,0,0,0,45.648,52.937ZM49,46.848,49.807,49H48.193Z" fill="#dddddd" data-original="#000000" class=""/><path d="M20,25H10a1,1,0,0,0,0,2H20a1,1,0,0,0,0-2Z" fill="#dddddd" data-original="#000000" class=""/><path d="M20,29H10a1,1,0,0,0,0,2H20a1,1,0,0,0,0-2Z" fill="#dddddd" data-original="#000000" class=""/><path d="M18,33H10a1,1,0,0,0,0,2h8a1,1,0,0,0,0-2Z" fill="#dddddd" data-original="#000000" class=""/></g></g></svg>
