<?xml version="1.0"?>
<svg xmlns="http://www.w3.org/2000/svg" xmlns:xlink="http://www.w3.org/1999/xlink" xmlns:svgjs="http://svgjs.com/svgjs" version="1.1" width="512" height="512" x="0" y="0" viewBox="0 0 480.005 480.005" style="enable-background:new 0 0 512 512" xml:space="preserve" class=""><g><g><path d="m151.98 373.971h44.918c18.665 0 28.431-14.332 28.431-28.489 0-14.168-9.766-28.511-28.431-28.511h-23.173c5.203-7.951 7.508-17.349 6.529-27h13.597c7.36.127 10.568 4.34 11.964 7.857 1.246 3.139 4.255 5.052 7.438 5.052 5.615 0 9.523-5.686 7.434-10.952-4.39-11.064-14.355-17.776-26.656-17.956-.039 0-18.677-.001-18.677-.001-4.223-7.806-10.829-14.158-19.009-17.942-13.025-6.025-30.827-8.102-54.418-6.349-38.765 2.88-51.55 40.291-90.945 40.291h-2.98c-4.418 0-8 3.582-8 8s3.582 8 8 8h2.98c45.384 0 60.533-37.986 92.13-40.334 20.52-1.525 36.169.129 46.516 4.914 15.745 7.284 20.304 28.947 7.163 42.029l-23.698 23.588c-3.222 3.209-8.754 1.67-9.732-2.653-2.413-10.667.501-21.274 8.525-29.571 3.071-3.176 2.986-8.241-.19-11.312-3.177-3.072-8.242-2.986-11.312.19-7.493 7.749-12.052 17.179-13.403 27.188-7.429 4.487-16.115 6.751-24.802 6.422-4.426-.163-8.131 3.273-8.3 7.688s3.273 8.131 7.688 8.3c8.604.331 17.655-1.212 26.304-4.932 4.076 16.459 24.631 21.846 36.51 10.02l14.604-14.537h37.914c13.257 0 15.122 14.764 9.338 21.292-2.181 2.461-5.323 3.708-9.338 3.708h-44.92c-18.27.001-29.953 13.72-29.953 30.006 0 5.132 1.22 10.286 3.623 14.838-16.743 4.05-23.872 22.492-18.046 37.397-43.964-4.746-46.331-32.509-99.355-34.159-4.404-.138-8.107 3.332-8.245 7.748-.137 4.416 3.331 8.107 7.748 8.245 24.671.768 35.877 7.735 48.853 15.803 14.417 8.963 30.756 19.138 66.114 19.138h48.287c22.124 0 33.12-21.371 25.27-39.145 11.475-1.007 20.532-7.865 24.497-18.715 1.516-4.15-.619-8.743-4.769-10.26-4.149-1.515-8.743.618-10.26 4.769-1.364 3.732-4.571 8.204-12.106 8.336h-41.657c-10.299 0-13.954-7.539-13.954-13.994.001-6.462 3.656-14.007 13.954-14.007zm19.119 44c4.631 0 7.992 1.754 9.989 5.213 2.174 3.766 2.198 8.982.06 12.687-1.966 3.405-5.378 5.116-10.143 5.116h-38.853c-3.281-.152-5.879-1.284-7.709-3.366-5.294-6.019-3.592-19.649 8.481-19.649h38.175z" fill="#dddddd" data-original="#000000"/><path d="m358.804 249.128c-4.417.11-7.908 3.78-7.798 8.197s3.759 7.886 8.197 7.798c5.36-.135 11.31.04 17.689.514 31.449 2.337 46.848 40.334 92.13 40.334h2.98c4.418 0 8-3.582 8-8s-3.582-8-8-8h-2.98c-39.334 0-52.33-37.42-90.944-40.291-6.903-.512-13.388-.698-19.274-.552z" fill="#dddddd" data-original="#000000"/><path d="m297.019 208.033c24.29-27.953 34.271-76.859 4.403-98.338-3.589-2.58-8.586-1.763-11.166 1.824s-1.763 8.586 1.824 11.166c10.371 7.458 13.994 20.938 10.476 38.984-4.292 22.016-21.649 50.818-56.439 59.537-4.06 1.018-8.35 1.018-12.407 0-34.791-8.718-52.147-37.521-56.44-59.537-9.391-48.171 35.322-53.601 57.379-34.328 3.327 2.907 8.381 2.567 11.288-.76s2.567-8.381-.76-11.288c-34.159-29.853-95.828-13.222-83.611 49.437 6.557 33.633 31.86 62.874 68.254 71.996 6.603 1.654 13.583 1.654 20.186 0 18.466-4.628 34.723-14.549 47.013-28.693z" fill="#dddddd" data-original="#000000"/><path d="m240.002 81.971c4.418 0 8-3.582 8-8v-43c0-4.418-3.582-8-8-8s-8 3.582-8 8v43c0 4.419 3.582 8 8 8z" fill="#dddddd" data-original="#000000"/><path d="m101.002 177.971h33c4.418 0 8-3.582 8-8s-3.582-8-8-8h-33c-4.418 0-8 3.582-8 8s3.582 8 8 8z" fill="#dddddd" data-original="#000000"/><path d="m337.824 169.971c0 4.418 3.582 8 8 8h33c4.418 0 8-3.582 8-8s-3.582-8-8-8h-33c-4.419 0-8 3.582-8 8z" fill="#dddddd" data-original="#000000"/><path d="m152.785 91.166c2.567 3.582 7.563 4.423 11.163 1.843 3.592-2.574 4.417-7.571 1.843-11.163l-19.222-26.824c-2.574-3.59-7.571-4.417-11.163-1.843s-4.417 7.571-1.843 11.163z" fill="#dddddd" data-original="#000000"/><path d="m316.058 93.009c3.606 2.584 8.6 1.733 11.163-1.843l19.222-26.824c2.573-3.591 1.749-8.589-1.843-11.163-3.591-2.573-8.588-1.749-11.163 1.843l-19.222 26.824c-2.574 3.592-1.749 8.589 1.843 11.163z" fill="#dddddd" data-original="#000000"/><path d="m471.756 406.053c-59.392 1.848-53.585 34.695-114.488 34.949h-48.125c-4.784 0-8.215-1.71-10.199-5.146-3.608-6.248-1.365-16.674 8.062-17.778.101 0 21.433-.021 20.626-.052 3.118-.158 5.508-.837 7.328-3.952 1.445-2.475 1.456-5.533.029-8.018-1.766-3.076-3.853-3.808-7.537-3.994.069-.004.138-.007.208-.01-.815.025.248-.04-4.112-.06-31.097-.132-.979.246-37.184-.022-10.368-.076-13.102-8.824-13.083-13.98.024-6.468 3.677-14.02 13.893-14.02h40.967c4.418 0 8-3.582 8-8s-3.582-8-8-8h-45.035c-9.066 0-12.362-6.631-12.43-12.309-.083-7.025 4.099-12.51 12.161-12.692.859-.019 55.165.001 55.165.001 4.418 0 8-3.582 8-8s-3.582-8.001-8-8.001h-54.729c-8.708-1.801-10.48-9.952-10.124-14.582.455-5.906 4.11-12.263 13.003-12.417h72.85c4.418 0 8-3.582 8-8s-3.582-8-8-8c0 0-72.99 0-73.029.001-27.292.397-36.86 31.849-21.666 49.57-12.891 11.148-12.882 33.057.345 44.126-14.746 17.012-6.864 48.145 19.095 50.196-7.698 17.579 3.093 39.171 25.396 39.169.33 0 48.063-.062 48.177-.062 35.279-.147 51.601-10.252 66-19.168 12.99-8.042 24.208-14.988 48.933-15.757 4.417-.137 7.885-3.829 7.748-8.245-.137-4.415-3.791-7.858-8.245-7.747z" fill="#dddddd" data-original="#000000"/></g></g></svg>
